<?xml version="1.0" encoding="UTF-8" standalone="no"?>
<!DOCTYPE svg PUBLIC "-//W3C//DTD SVG 1.1//EN" "http://www.w3.org/Graphics/SVG/1.1/DTD/svg11.dtd">
<svg version="1.1" xmlns:dc="http://purl.org/dc/elements/1.1/" xmlns="http://www.w3.org/2000/svg" xmlns:xl="http://www.w3.org/1999/xlink" viewBox="430 309 137.94578 158" width="137.94578" height="158">
  <defs/>
  <g id="Canvas_1" stroke="none" fill-opacity="1" stroke-dasharray="none" stroke-opacity="1" fill="none">
    <title>Canvas 1</title>
    <g id="Canvas_1_Layer_1">
      <title>Layer 1</title>
      <g id="Group_2">
        <g id="Graphic_8">
          <path d="M 560.9024 348.733 L 499.93156 313.5768 C 499.31257 313.21987 498.5502 313.2203 497.9316 313.5779 L 437.00004 348.8015 C 436.04376 349.35433 435.7167 350.5777 436.2695 351.53397 C 436.4453 351.8381 436.6981 352.09053 437.00245 352.2659 L 497.9733 387.3993 C 498.59204 387.75583 499.35395 387.7554 499.9723 387.3982 L 560.90384 352.1974 C 561.8603 351.64484 562.1877 350.42157 561.63515 349.46514 C 561.4594 349.16098 561.2067 348.90846 560.9024 348.733 Z" fill="#7a9c50"/>
        </g>
        <g id="Graphic_7">
          <path d="M 502.01356 461.2663 L 560.9477 427.1968 C 561.904 426.644 562.23106 425.4206 561.67824 424.46434 C 561.5026 424.16056 561.2502 423.90834 560.9463 423.733 L 501.9741 389.70714 C 501.0174 389.15512 499.7943 389.4832 499.24227 390.43995 C 499.0667 390.7442 498.9744 391.08932 498.9746 391.4406 L 499.0126 459.5359 C 499.0132 460.64047 499.90914 461.5354 501.0137 461.5348 C 501.3648 461.5346 501.7096 461.442 502.01356 461.2663 Z" fill="#e0141d"/>
        </g>
        <g id="Graphic_6">
          <path d="M 563.9063 353.92693 L 563.94375 421.9985 C 563.94436 423.10305 563.0494 423.99897 561.94486 423.9996 C 561.5936 423.9998 561.2485 423.90745 560.9442 423.7319 L 501.9736 389.70666 C 501.01686 389.15463 500.6888 387.93154 501.2408 386.9748 C 501.41625 386.6707 501.66866 386.41817 501.97266 386.24255 L 560.9058 352.19625 C 561.86224 351.6437 563.0855 351.97113 563.63805 352.92756 C 563.8136 353.2314 563.9061 353.57604 563.9063 353.92693 Z" fill="#fabb42"/>
        </g>
        <g id="Graphic_5">
          <path d="M 434.0021 353.999 L 434.0401 422.07107 C 434.0407 423.17564 434.93665 424.07057 436.0412 424.06995 C 436.3925 424.06976 436.7375 423.97705 437.04157 423.80116 L 495.9742 389.70966 C 496.93033 389.15656 497.25704 387.9331 496.70395 386.977 C 496.52815 386.6731 496.27547 386.42085 495.9713 386.24557 L 437.00064 352.265 C 436.0436 351.7135 434.8207 352.0423 434.2692 352.99933 C 434.09403 353.30335 434.0019 353.6481 434.0021 353.999 Z" fill="#6496ce"/>
        </g>
        <g id="Graphic_4">
          <path d="M 496.01355 461.2696 L 437.04194 427.26586 C 436.08505 426.7141 435.7566 425.4911 436.3084 424.5342 C 436.48365 424.23025 436.7358 423.97775 437.0395 423.80205 L 495.97314 389.7105 C 496.92926 389.1574 498.1527 389.48414 498.7058 390.44026 C 498.8817 390.7443 498.9744 391.08933 498.9746 391.4406 L 499.0126 459.5359 C 499.0132 460.64045 498.1183 461.5364 497.0137 461.537 C 496.66263 461.5372 496.3177 461.445 496.01355 461.2696 Z" fill="#d3d4da"/>
        </g>
        <g id="Graphic_3">
          <circle cx="498.9522" cy="387.9638" r="15.1623352891422" fill="#d3d4da"/>
        </g>
      </g>
    </g>
  </g>
</svg>
