<?xml version="1.0" encoding="UTF-8" standalone="no"?>
<!DOCTYPE svg PUBLIC "-//W3C//DTD SVG 1.1//EN" "http://www.w3.org/Graphics/SVG/1.1/DTD/svg11.dtd">
<svg xmlns:dc="http://purl.org/dc/elements/1.1/" xmlns="http://www.w3.org/2000/svg" xmlns:xl="http://www.w3.org/1999/xlink" version="1.1" viewBox="1421 916 300 300" width="300" height="300">
  <defs/>
  <g id="ODA_SDK" fill-opacity="1" stroke="none" stroke-opacity="1" stroke-dasharray="none" fill="none">
    <title>ODA SDK</title>
    <g id="ODA_SDK_Layer_1">
      <title>Layer 1</title>
      <g id="Group_237">
        <g id="Group_28">
          <g id="Group_51">
            <g id="Graphic_53">
              <path d="M 1561.1901 1003.0841 L 1580.008 1003.0841 C 1581.0203 1003.0841 1581.841 1002.2634 1581.841 1001.251 C 1581.841 1001.1833 1581.8373 1001.1158 1581.8298 1001.0485 L 1577.6544 963.4696 C 1577.5512 962.5413 1576.7665 961.839 1575.8325 961.839 L 1565.3655 961.839 C 1564.4315 961.839 1563.6468 962.5413 1563.5436 963.4696 L 1559.3682 1001.0485 C 1559.2564 1002.0548 1559.9815 1002.9611 1560.9877 1003.0729 C 1561.0549 1003.0804 1561.1225 1003.0841 1561.1901 1003.0841 Z" fill="#688d3f"/>
            </g>
            <g id="Graphic_52">
              <title>Trapezoid</title>
              <path d="M 1561.2027 1060.2544 L 1579.9953 1060.2544 C 1581.0077 1060.2544 1581.8284 1061.0752 1581.8284 1062.0876 C 1581.8284 1062.1589 1581.8242 1062.2302 1581.816 1062.3011 L 1577.6632 1097.7032 C 1577.5548 1098.6266 1576.7723 1099.3227 1575.8425 1099.3227 L 1565.3555 1099.3227 C 1564.4257 1099.3227 1563.6432 1098.6266 1563.5348 1097.7032 L 1559.3821 1062.3011 C 1559.2642 1061.2956 1559.9837 1060.3849 1560.9892 1060.2669 C 1561.06 1060.2586 1561.1314 1060.2544 1561.2027 1060.2544 Z" fill="#688d3f"/>
            </g>
          </g>
          <g id="Group_48">
            <g id="Graphic_50">
              <path d="M 1599.4706 1021.1798 L 1599.4706 1039.982 C 1599.4706 1040.9943 1600.2913 1041.815 1601.3037 1041.815 C 1601.3737 1041.815 1601.4436 1041.811 1601.513 1041.8031 L 1637.7171 1037.6417 C 1638.6424 1037.5353 1639.3409 1036.752 1639.3409 1035.8206 L 1639.3409 1025.3411 C 1639.3409 1024.4097 1638.6424 1023.6264 1637.7171 1023.52 L 1601.513 1019.3586 C 1600.5073 1019.243 1599.5982 1019.9647 1599.4826 1020.9704 C 1599.4746 1021.0399 1599.4706 1021.1098 1599.4706 1021.1798 Z" fill="#688d3f"/>
            </g>
            <g id="Graphic_49">
              <path d="M 1544.248 1021.1658 L 1544.248 1039.9959 C 1544.248 1041.0083 1543.4272 1041.829 1542.4148 1041.829 C 1542.349 1041.829 1542.2832 1041.8254 1542.2178 1041.8184 L 1503.4932 1037.6319 C 1502.5625 1037.5313 1501.8571 1036.7456 1501.8571 1035.8094 L 1501.8571 1025.3523 C 1501.8571 1024.4161 1502.5625 1023.6304 1503.4932 1023.5298 L 1542.2178 1019.3433 C 1543.2243 1019.2345 1544.1285 1019.9623 1544.2373 1020.9688 C 1544.2444 1021.0343 1544.248 1021.1 1544.248 1021.1658 Z" fill="#688d3f"/>
            </g>
          </g>
          <g id="Group_45">
            <g id="Graphic_47">
              <path d="M 1584.3997 1004.3967 L 1597.6997 1017.6967 C 1598.4156 1018.4126 1599.5763 1018.4126 1600.2922 1017.6967 C 1600.3409 1017.648 1600.3868 1017.5965 1600.4298 1017.5426 L 1623.5058 988.5727 C 1624.0869 987.8432 1624.0277 986.7938 1623.3682 986.1344 L 1615.962 978.7282 C 1615.3026 978.0688 1614.2532 978.0095 1613.5237 978.5906 L 1584.5538 1001.6666 C 1583.7619 1002.2974 1583.6313 1003.4507 1584.262 1004.2426 C 1584.305 1004.2965 1584.351 1004.3479 1584.3997 1004.3967 Z" fill="#688d3f"/>
            </g>
            <g id="Graphic_46">
              <path d="M 1544.7566 1044.0359 L 1558.0605 1057.3398 C 1558.7764 1058.0557 1558.7764 1059.2164 1558.0605 1059.9322 C 1558.0124 1059.9804 1557.9616 1060.0258 1557.9083 1060.0683 L 1528.5912 1083.4846 C 1527.8618 1084.0672 1526.811 1084.0086 1526.151 1083.3485 L 1518.7479 1075.9455 C 1518.0878 1075.2854 1518.0292 1074.2346 1518.6118 1073.5052 L 1542.028 1044.1881 C 1542.6599 1043.397 1543.8134 1043.268 1544.6044 1043.8998 C 1544.6576 1043.9423 1544.7084 1043.9877 1544.7566 1044.0359 Z" fill="#688d3f"/>
            </g>
          </g>
          <g id="Group_42">
            <g id="Graphic_44">
              <path d="M 1598.8386 1045.534 L 1585.5522 1058.8205 C 1584.8363 1059.5363 1584.8363 1060.697 1585.5522 1061.4129 C 1585.603 1061.4636 1585.6567 1061.5114 1585.713 1061.5558 L 1613.525 1083.4984 C 1614.2546 1084.074 1615.2995 1084.0126 1615.9566 1083.3555 L 1623.3736 1075.9385 C 1624.0308 1075.2814 1624.0922 1074.2365 1623.5166 1073.5069 L 1601.574 1045.6948 C 1600.9469 1044.9 1599.7942 1044.764 1598.9994 1045.3911 C 1598.943 1045.4356 1598.8894 1045.4833 1598.8386 1045.534 Z" fill="#688d3f"/>
            </g>
            <g id="Graphic_43">
              <path d="M 1558.3485 1005.0233 L 1545.0414 1018.3304 C 1544.3256 1019.0463 1543.1649 1019.0463 1542.449 1018.3304 C 1542.4013 1018.2827 1542.3563 1018.2324 1542.3142 1018.1797 L 1518.6143 988.5733 C 1518.0304 987.844 1518.0885 986.7922 1518.7492 986.1315 L 1526.1497 978.731 C 1526.8103 978.0704 1527.8621 978.0123 1528.5915 978.5961 L 1558.1979 1002.296 C 1558.9883 1002.9287 1559.116 1004.0823 1558.4834 1004.8727 C 1558.4412 1004.9253 1558.3962 1004.9756 1558.3485 1005.0233 Z" fill="#688d3f"/>
            </g>
          </g>
          <g id="Group_39">
            <g id="Graphic_41">
              <path d="M 1573.1341 1002.2216 L 1590.519 1009.4227 C 1591.4544 1009.8101 1592.5267 1009.3659 1592.9141 1008.4306 C 1592.94 1008.368 1592.9624 1008.3041 1592.9813 1008.2391 L 1603.4873 971.9654 C 1603.7472 971.0683 1603.291 970.1193 1602.428 969.7619 L 1592.7575 965.7562 C 1591.8946 965.3988 1590.901 965.7473 1590.4504 966.5653 L 1572.23 999.6436 C 1571.7415 1000.5304 1572.0644 1001.6452 1572.9512 1002.1337 C 1573.0105 1002.1663 1573.0715 1002.1957 1573.1341 1002.2216 Z" fill="#688d3f"/>
            </g>
            <g id="Graphic_40">
              <path d="M 1551.7616 1053.8308 L 1569.1385 1061.0285 C 1570.0738 1061.4159 1570.518 1062.4882 1570.1306 1063.4236 C 1570.1042 1063.4873 1570.0742 1063.5495 1570.0408 1063.6099 L 1552.1238 1095.9759 C 1551.6722 1096.7917 1550.68 1097.1385 1549.8185 1096.7817 L 1540.1416 1092.7733 C 1539.28 1092.4165 1538.8237 1091.4697 1539.0812 1090.5735 L 1549.2983 1055.018 C 1549.5779 1054.045 1550.5933 1053.4829 1551.5664 1053.7625 C 1551.6327 1053.7816 1551.6978 1053.8043 1551.7616 1053.8308 Z" fill="#688d3f"/>
            </g>
          </g>
          <g id="Group_36">
            <g id="Graphic_38">
              <path d="M 1594.1864 1011.9284 L 1601.3836 1029.3041 C 1601.771 1030.2394 1602.8434 1030.6836 1603.7787 1030.2961 C 1603.8427 1030.2697 1603.905 1030.2396 1603.9656 1030.206 L 1636.224 1012.335 C 1637.0394 1011.8832 1637.386 1010.8913 1637.0292 1010.03 L 1633.0204 1000.352 C 1632.6637 999.4907 1631.7172 999.0344 1630.8211 999.2916 L 1595.3743 1009.4649 C 1594.4012 1009.7442 1593.8387 1010.7595 1594.118 1011.7326 C 1594.1371 1011.7991 1594.16 1011.8645 1594.1864 1011.9284 Z" fill="#688d3f"/>
            </g>
            <g id="Graphic_37">
              <path d="M 1541.5308 1033.7399 L 1548.7275 1051.1142 C 1549.115 1052.0495 1548.6707 1053.1218 1547.7354 1053.5093 C 1547.6713 1053.5358 1547.6057 1053.5587 1547.539 1053.5778 L 1512.2096 1063.704 C 1511.3136 1063.9608 1510.3676 1063.5044 1510.011 1062.6433 L 1506.0017 1052.9643 C 1505.645 1052.1032 1505.9913 1051.1115 1506.8064 1050.6596 L 1538.9483 1032.8382 C 1539.8337 1032.3473 1540.9495 1032.6671 1541.4404 1033.5525 C 1541.474 1033.6132 1541.5042 1033.6757 1541.5308 1033.7399 Z" fill="#688d3f"/>
            </g>
          </g>
          <g id="Group_33">
            <g id="Graphic_35">
              <path d="M 1591.5977 1054.4338 L 1574.2879 1061.7813 C 1573.356 1062.1769 1572.9212 1063.2531 1573.3167 1064.185 C 1573.344 1064.249 1573.3747 1064.3115 1573.409 1064.372 L 1591.4707 1096.2666 C 1591.9298 1097.0775 1592.9243 1097.4148 1593.782 1097.0507 L 1603.4266 1092.9569 C 1604.2843 1092.5928 1604.7324 1091.6431 1604.4681 1090.7495 L 1594.0718 1055.6012 C 1593.7846 1054.6304 1592.7648 1054.0762 1591.794 1054.3633 C 1591.7273 1054.383 1591.6617 1054.4066 1591.5977 1054.4338 Z" fill="#688d3f"/>
            </g>
            <g id="Graphic_34">
              <path d="M 1569.5146 1002.3978 L 1552.1965 1009.7489 C 1551.2646 1010.1445 1550.1885 1009.7097 1549.7929 1008.7778 C 1549.7662 1008.715 1549.743 1008.6507 1549.7236 1008.5853 L 1539.0257 972.706 C 1538.759 971.8115 1539.207 970.8595 1540.0662 970.4948 L 1549.704 966.4038 C 1550.5632 966.0391 1551.5592 966.3782 1552.0174 967.1914 L 1570.3954 999.8106 C 1570.8924 1000.6926 1570.5802 1001.8105 1569.6982 1002.3075 C 1569.6387 1002.341 1569.5774 1002.3711 1569.5146 1002.3978 Z" fill="#688d3f"/>
            </g>
          </g>
          <g id="Group_30">
            <g id="Graphic_32">
              <path d="M 1601.6694 1033.9437 L 1594.4725 1051.3187 C 1594.085 1052.2541 1594.5292 1053.3264 1595.4646 1053.7138 C 1595.5286 1053.7403 1595.594 1053.7632 1595.6607 1053.7823 L 1631.0505 1063.9327 C 1631.9465 1064.1897 1632.8927 1063.7334 1633.2495 1062.8722 L 1637.2584 1053.1937 C 1637.6151 1052.3325 1637.2688 1051.3407 1636.4534 1050.8888 L 1604.2516 1033.0419 C 1603.3661 1032.5511 1602.2504 1032.8711 1601.7597 1033.7566 C 1601.726 1033.8172 1601.696 1033.8797 1601.6694 1033.9437 Z" fill="#688d3f"/>
            </g>
            <g id="Graphic_31">
              <path d="M 1549.9606 1012.519 L 1542.7592 1029.9046 C 1542.3718 1030.84 1541.2995 1031.2841 1540.3642 1030.8967 C 1540.3017 1030.8708 1540.2407 1030.8415 1540.1815 1030.8089 L 1507.0422 1012.5625 C 1506.2239 1012.112 1505.8753 1011.1182 1506.2327 1010.2552 L 1510.2382 1000.5852 C 1510.5957 999.7222 1511.5449 999.266 1512.442 999.526 L 1548.7773 1010.0569 C 1549.7497 1010.3387 1550.3095 1011.3554 1550.0277 1012.3278 C 1550.0089 1012.3927 1549.9865 1012.4566 1549.9606 1012.519 Z" fill="#688d3f"/>
            </g>
          </g>
          <g id="Graphic_29">
            <circle cx="1571.7447" cy="1031.7266" r="41.2452020924516" stroke="#688d3f" stroke-linecap="round" stroke-linejoin="round" stroke-width="28.184176"/>
          </g>
        </g>
        <g id="Group_106">
          <g id="Group_129">
            <g id="Graphic_131">
              <path d="M 1469.1905 1069.6492 L 1476.5514 1069.6492 C 1477.5638 1069.6492 1478.3845 1068.8284 1478.3845 1067.816 C 1478.3845 1067.7484 1478.3807 1067.6808 1478.3733 1067.6136 L 1476.4892 1050.6573 C 1476.386 1049.7289 1475.6014 1049.0266 1474.6673 1049.0266 L 1471.0746 1049.0266 C 1470.1405 1049.0266 1469.3558 1049.7289 1469.2527 1050.6573 L 1467.3686 1067.6136 C 1467.2568 1068.6198 1467.9819 1069.5261 1468.9881 1069.638 C 1469.0553 1069.6454 1469.1229 1069.6492 1469.1905 1069.6492 Z" fill="#6496cd"/>
            </g>
            <g id="Graphic_130">
              <title>Trapezoid</title>
              <path d="M 1469.2032 1098.2343 L 1476.5387 1098.2343 C 1477.5511 1098.2343 1478.3718 1099.055 1478.3718 1100.0674 C 1478.3718 1100.1388 1478.3677 1100.2101 1478.3594 1100.281 L 1476.498 1116.149 C 1476.3897 1117.0724 1475.6072 1117.7685 1474.6774 1117.7685 L 1471.0645 1117.7685 C 1470.1347 1117.7685 1469.3522 1117.0724 1469.2439 1116.149 L 1467.3825 1100.281 C 1467.2646 1099.2755 1467.9841 1098.3648 1468.9896 1098.2468 C 1469.0605 1098.2385 1469.1318 1098.2343 1469.2032 1098.2343 Z" fill="#6496cd"/>
            </g>
          </g>
          <g id="Group_126">
            <g id="Graphic_128">
              <path d="M 1487.3067 1079.725 L 1487.3067 1087.0701 C 1487.3067 1088.0825 1488.1275 1088.9033 1489.1399 1088.9033 C 1489.2098 1088.9033 1489.2797 1088.8993 1489.3492 1088.8913 L 1505.6181 1087.0213 C 1506.5434 1086.9149 1507.2419 1086.1316 1507.2419 1085.2002 L 1507.2419 1081.5949 C 1507.2419 1080.6635 1506.5434 1079.8802 1505.6181 1079.7738 L 1489.3492 1077.9038 C 1488.3434 1077.7882 1487.4343 1078.5098 1487.3187 1079.5156 C 1487.3107 1079.5851 1487.3067 1079.655 1487.3067 1079.725 Z" fill="#6496cd"/>
            </g>
            <g id="Graphic_127">
              <path d="M 1458.9393 1079.7192 L 1458.9393 1087.0759 C 1458.9393 1088.0883 1458.1185 1088.909 1457.1061 1088.909 C 1457.0379 1088.909 1456.9697 1088.9052 1456.9019 1088.8976 L 1440.1289 1087.0172 C 1439.2013 1086.9133 1438.5 1086.1289 1438.5 1085.1955 L 1438.5 1081.5995 C 1438.5 1080.6662 1439.2013 1079.8818 1440.1289 1079.7778 L 1456.9019 1077.8975 C 1457.908 1077.7847 1458.815 1078.5088 1458.9278 1079.5149 C 1458.9354 1079.5827 1458.9393 1079.6509 1458.9393 1079.7192 Z" fill="#6496cd"/>
            </g>
          </g>
          <g id="Group_123">
            <g id="Graphic_125">
              <path d="M 1480.2678 1070.802 L 1485.4665 1076.0007 C 1486.1824 1076.7166 1487.343 1076.7166 1488.059 1076.0007 C 1488.1077 1075.952 1488.1536 1075.9005 1488.1966 1075.8466 L 1498.5852 1062.8046 C 1499.1662 1062.0752 1499.107 1061.0257 1498.4476 1060.3663 L 1495.9022 1057.8209 C 1495.2428 1057.1615 1494.1933 1057.1023 1493.4639 1057.6833 L 1480.4219 1068.0719 C 1479.63 1068.7027 1479.4994 1069.856 1480.1302 1070.6479 C 1480.1731 1070.7018 1480.219 1070.7532 1480.2678 1070.802 Z" fill="#6496cd"/>
            </g>
            <g id="Graphic_124">
              <path d="M 1460.4453 1090.6206 L 1465.6479 1095.8232 C 1466.3638 1096.5391 1466.3638 1097.6998 1465.6479 1098.4156 C 1465.5997 1098.4638 1465.549 1098.5092 1465.4957 1098.5517 L 1452.2784 1109.1087 C 1451.549 1109.6913 1450.4983 1109.6327 1449.8382 1108.9726 L 1447.2959 1106.4303 C 1446.6358 1105.7702 1446.5772 1104.7195 1447.1598 1103.9901 L 1457.7167 1090.7728 C 1458.3486 1089.9817 1459.502 1089.8527 1460.2931 1090.4845 C 1460.3463 1090.527 1460.3971 1090.5724 1460.4453 1090.6206 Z" fill="#6496cd"/>
            </g>
          </g>
          <g id="Group_120">
            <g id="Graphic_122">
              <path d="M 1485.5743 1091.8323 L 1480.3892 1097.0174 C 1479.6733 1097.7333 1479.6733 1098.894 1480.3892 1099.6099 C 1480.44 1099.6606 1480.4936 1099.7083 1480.55 1099.7528 L 1493.0069 1109.5808 C 1493.7365 1110.1564 1494.7814 1110.095 1495.4385 1109.4379 L 1497.9947 1106.8816 C 1498.6518 1106.2245 1498.7133 1105.1796 1498.1376 1104.45 L 1488.3096 1091.9931 C 1487.6826 1091.1983 1486.5299 1091.0623 1485.735 1091.6894 C 1485.6787 1091.7339 1485.625 1091.7816 1485.5743 1091.8323 Z" fill="#6496cd"/>
            </g>
            <g id="Graphic_121">
              <path d="M 1465.3344 1071.5718 L 1460.1286 1076.7776 C 1459.4128 1077.4934 1458.2521 1077.4934 1457.5362 1076.7776 C 1457.4885 1076.7299 1457.4435 1076.6796 1457.4013 1076.6269 L 1446.704 1063.2635 C 1446.1201 1062.5342 1446.1782 1061.4824 1446.8389 1060.8218 L 1449.3786 1058.282 C 1450.0392 1057.6214 1451.091 1057.5633 1451.8204 1058.1471 L 1465.1838 1068.8445 C 1465.9741 1069.4772 1466.102 1070.6308 1465.4693 1071.4211 C 1465.4271 1071.4738 1465.3821 1071.5241 1465.3344 1071.5718 Z" fill="#6496cd"/>
            </g>
          </g>
          <g id="Group_117">
            <g id="Graphic_119">
              <path d="M 1475.02 1069.072 L 1481.8051 1071.8824 C 1482.7404 1072.2699 1483.8128 1071.8257 1484.2002 1070.8904 C 1484.227 1070.8256 1484.2501 1070.7593 1484.2693 1070.6919 L 1488.7512 1054.9878 C 1489.0067 1054.0924 1488.5503 1053.1476 1487.69 1052.7912 L 1484.3584 1051.4112 C 1483.498 1051.0548 1482.5072 1051.4002 1482.0547 1052.2141 L 1474.1193 1066.4877 C 1473.6274 1067.3725 1473.946 1068.4886 1474.8308 1068.9805 C 1474.892 1069.0146 1474.9552 1069.0451 1475.02 1069.072 Z" fill="#6496cd"/>
            </g>
            <g id="Graphic_118">
              <path d="M 1464.0567 1095.5298 L 1470.8488 1098.3432 C 1471.7841 1098.7306 1472.2283 1099.8029 1471.8408 1100.7383 C 1471.8144 1100.802 1471.7845 1100.8642 1471.751 1100.9246 L 1463.686 1115.4935 C 1463.2344 1116.3094 1462.2423 1116.6561 1461.3808 1116.2993 L 1458.0547 1114.9216 C 1457.1932 1114.5647 1456.7369 1113.618 1456.9944 1112.7217 L 1461.5934 1096.7171 C 1461.873 1095.7441 1462.8885 1095.182 1463.8615 1095.4616 C 1463.9278 1095.4806 1463.993 1095.5034 1464.0567 1095.5298 Z" fill="#6496cd"/>
            </g>
          </g>
          <g id="Group_114">
            <g id="Graphic_116">
              <path d="M 1484.5993 1075.0198 L 1487.4121 1081.8106 C 1487.7995 1082.746 1488.8718 1083.1901 1489.8072 1082.8027 C 1489.8711 1082.7762 1489.9335 1082.7461 1489.994 1082.7126 L 1504.5094 1074.6711 C 1505.3249 1074.2194 1505.6714 1073.2275 1505.3146 1072.3661 L 1503.9365 1069.0391 C 1503.5797 1068.1778 1502.6333 1067.7214 1501.7372 1067.9786 L 1485.7871 1072.5564 C 1484.814 1072.8356 1484.2516 1073.8509 1484.5309 1074.824 C 1484.55 1074.8905 1484.5728 1074.9559 1484.5993 1075.0198 Z" fill="#6496cd"/>
            </g>
            <g id="Graphic_115">
              <path d="M 1458.2716 1085.9259 L 1461.0839 1092.7153 C 1461.4713 1093.6507 1461.0271 1094.723 1460.0918 1095.1104 C 1460.0277 1095.137 1459.9621 1095.1599 1459.8954 1095.179 L 1444.0043 1099.7337 C 1443.1083 1099.9905 1442.1623 1099.5342 1441.8056 1098.6731 L 1440.427 1095.345 C 1440.0704 1094.4839 1440.4166 1093.4922 1441.2317 1093.0403 L 1455.6891 1085.0242 C 1456.5745 1084.5333 1457.6903 1084.8531 1458.1812 1085.7385 C 1458.2149 1085.7992 1458.245 1085.8618 1458.2716 1085.9259 Z" fill="#6496cd"/>
            </g>
          </g>
          <g id="Group_111">
            <g id="Graphic_113">
              <path d="M 1481.3935 1095.1526 L 1474.6299 1098.0235 C 1473.698 1098.4191 1473.2632 1099.4953 1473.6588 1100.4272 C 1473.686 1100.4912 1473.7168 1100.5537 1473.751 1100.6142 L 1481.8727 1114.956 C 1482.3319 1115.7669 1483.3263 1116.1042 1484.184 1115.7401 L 1487.5009 1114.3322 C 1488.3586 1113.9681 1488.8068 1113.0184 1488.5424 1112.1249 L 1483.8676 1096.32 C 1483.5804 1095.3492 1482.5606 1094.795 1481.5898 1095.0821 C 1481.523 1095.1019 1481.4575 1095.1254 1481.3935 1095.1526 Z" fill="#6496cd"/>
            </g>
            <g id="Graphic_112">
              <path d="M 1470.354 1069.1337 L 1463.5822 1072.0082 C 1462.6502 1072.4038 1461.574 1071.969 1461.1785 1071.037 C 1461.1518 1070.9742 1461.1287 1070.91 1461.1092 1070.8446 L 1456.2873 1054.6726 C 1456.0206 1053.7782 1456.4686 1052.8262 1457.3278 1052.4615 L 1460.638 1051.0564 C 1461.4971 1050.6917 1462.4931 1051.0308 1462.9513 1051.844 L 1471.2349 1066.5465 C 1471.7318 1067.4285 1471.4196 1068.5464 1470.5376 1069.0434 C 1470.4781 1069.0769 1470.4169 1069.107 1470.354 1069.1337 Z" fill="#6496cd"/>
            </g>
          </g>
          <g id="Group_108">
            <g id="Graphic_110">
              <path d="M 1487.4404 1085.4548 L 1484.6278 1092.245 C 1484.2404 1093.1803 1484.6845 1094.2526 1485.6199 1094.64 C 1485.6839 1094.6666 1485.7494 1094.6894 1485.816 1094.7085 L 1501.7374 1099.2751 C 1502.6335 1099.5321 1503.5797 1099.0757 1503.9364 1098.2145 L 1505.3147 1094.887 C 1505.6714 1094.0257 1505.325 1093.034 1504.5097 1092.5821 L 1490.0225 1084.553 C 1489.137 1084.0622 1488.0214 1084.3822 1487.5306 1085.2677 C 1487.497 1085.3283 1487.4669 1085.3908 1487.4404 1085.4548 Z" fill="#6496cd"/>
            </g>
            <g id="Graphic_109">
              <path d="M 1461.587 1074.7398 L 1458.77 1081.5405 C 1458.3827 1082.4759 1457.3103 1082.92 1456.375 1082.5326 C 1456.3125 1082.5067 1456.2516 1082.4774 1456.1924 1082.4448 L 1441.2384 1074.2112 C 1440.42 1073.7607 1440.0715 1072.7669 1440.429 1071.9039 L 1441.8037 1068.5848 C 1442.1612 1067.7218 1443.1104 1067.2656 1444.0076 1067.5256 L 1460.4037 1072.2777 C 1461.3761 1072.5595 1461.936 1073.5762 1461.6541 1074.5486 C 1461.6353 1074.6135 1461.6129 1074.6774 1461.587 1074.7398 Z" fill="#6496cd"/>
            </g>
          </g>
          <g id="Graphic_107">
            <circle cx="1472.871" cy="1083.3975" r="20.622601046226" stroke="#6496cd" stroke-linecap="round" stroke-linejoin="round" stroke-width="13.748379"/>
          </g>
        </g>
        <g id="Group_132">
          <g id="Group_155">
            <g id="Graphic_157">
              <path d="M 1665.4486 1070.3366 L 1672.8095 1070.3366 C 1673.8219 1070.3366 1674.6426 1069.5159 1674.6426 1068.5035 C 1674.6426 1068.4358 1674.6388 1068.3682 1674.6314 1068.301 L 1672.7473 1051.3447 C 1672.6442 1050.4163 1671.8595 1049.714 1670.9254 1049.714 L 1667.3327 1049.714 C 1666.3986 1049.714 1665.614 1050.4163 1665.5108 1051.3447 L 1663.6267 1068.301 C 1663.515 1069.3072 1664.24 1070.2136 1665.2462 1070.3254 C 1665.3134 1070.3328 1665.381 1070.3366 1665.4486 1070.3366 Z" fill="#f9ba42"/>
            </g>
            <g id="Graphic_156">
              <title>Trapezoid</title>
              <path d="M 1665.4613 1098.9218 L 1672.7968 1098.9218 C 1673.8092 1098.9218 1674.63 1099.7425 1674.63 1100.7549 C 1674.63 1100.8262 1674.6258 1100.8975 1674.6175 1100.9684 L 1672.7561 1116.8364 C 1672.6478 1117.7598 1671.8653 1118.4559 1670.9355 1118.4559 L 1667.3226 1118.4559 C 1666.3928 1118.4559 1665.6103 1117.7598 1665.502 1116.8364 L 1663.6406 1100.9684 C 1663.5227 1099.9629 1664.2422 1099.0522 1665.2477 1098.9342 C 1665.3186 1098.9259 1665.39 1098.9218 1665.4613 1098.9218 Z" fill="#f9ba42"/>
            </g>
          </g>
          <g id="Group_152">
            <g id="Graphic_154">
              <path d="M 1683.5649 1080.4124 L 1683.5649 1087.7576 C 1683.5649 1088.77 1684.3856 1089.5907 1685.398 1089.5907 C 1685.468 1089.5907 1685.5378 1089.5867 1685.6073 1089.5787 L 1701.8762 1087.7087 C 1702.8015 1087.6023 1703.5 1086.819 1703.5 1085.8876 L 1703.5 1082.2823 C 1703.5 1081.3509 1702.8015 1080.5676 1701.8762 1080.4612 L 1685.6073 1078.5912 C 1684.6015 1078.4756 1683.6924 1079.1973 1683.5768 1080.203 C 1683.5689 1080.2725 1683.5649 1080.3424 1683.5649 1080.4124 Z" fill="#f9ba42"/>
            </g>
            <g id="Graphic_153">
              <path d="M 1655.1974 1080.4066 L 1655.1974 1087.7633 C 1655.1974 1088.7757 1654.3766 1089.5965 1653.3642 1089.5965 C 1653.296 1089.5965 1653.2278 1089.5927 1653.16 1089.585 L 1636.387 1087.7047 C 1635.4594 1087.6007 1634.7581 1086.8163 1634.7581 1085.883 L 1634.7581 1082.287 C 1634.7581 1081.3536 1635.4594 1080.5692 1636.387 1080.4653 L 1653.16 1078.5849 C 1654.1661 1078.4721 1655.0732 1079.1962 1655.186 1080.2023 C 1655.1936 1080.2702 1655.1974 1080.3383 1655.1974 1080.4066 Z" fill="#f9ba42"/>
            </g>
          </g>
          <g id="Group_149">
            <g id="Graphic_151">
              <path d="M 1676.5259 1071.4894 L 1681.7246 1076.6881 C 1682.4405 1077.404 1683.6012 1077.404 1684.317 1076.6881 C 1684.3658 1076.6394 1684.4117 1076.5879 1684.4547 1076.534 L 1694.8433 1063.492 C 1695.4243 1062.7626 1695.3651 1061.7132 1694.7057 1061.0537 L 1692.1603 1058.5083 C 1691.5009 1057.8489 1690.4514 1057.7897 1689.722 1058.3707 L 1676.68 1068.7593 C 1675.8881 1069.3901 1675.7575 1070.5434 1676.3883 1071.3353 C 1676.4312 1071.3892 1676.4772 1071.4406 1676.5259 1071.4894 Z" fill="#f9ba42"/>
            </g>
            <g id="Graphic_150">
              <path d="M 1656.7034 1091.308 L 1661.906 1096.5106 C 1662.6219 1097.2265 1662.6219 1098.3872 1661.906 1099.103 C 1661.8578 1099.1512 1661.807 1099.1967 1661.7538 1099.2392 L 1648.5365 1109.7961 C 1647.807 1110.3787 1646.7564 1110.3201 1646.0963 1109.66 L 1643.554 1107.1177 C 1642.8939 1106.4577 1642.8353 1105.4069 1643.4179 1104.6775 L 1653.9749 1091.4602 C 1654.6067 1090.6692 1655.7601 1090.5401 1656.5512 1091.1719 C 1656.6044 1091.2144 1656.6552 1091.2599 1656.7034 1091.308 Z" fill="#f9ba42"/>
            </g>
          </g>
          <g id="Group_146">
            <g id="Graphic_148">
              <path d="M 1681.8324 1092.5198 L 1676.6473 1097.7049 C 1675.9314 1098.4207 1675.9314 1099.5814 1676.6473 1100.2973 C 1676.698 1100.348 1676.7517 1100.3957 1676.808 1100.4402 L 1689.265 1110.2682 C 1689.9946 1110.8438 1691.0395 1110.7824 1691.6966 1110.1253 L 1694.2528 1107.569 C 1694.91 1106.9119 1694.9714 1105.867 1694.3957 1105.1374 L 1684.5677 1092.6805 C 1683.9407 1091.8857 1682.788 1091.7497 1681.9932 1092.3768 C 1681.9368 1092.4213 1681.8831 1092.469 1681.8324 1092.5198 Z" fill="#f9ba42"/>
            </g>
            <g id="Graphic_147">
              <path d="M 1661.5925 1072.2592 L 1656.3867 1077.465 C 1655.6709 1078.1809 1654.5102 1078.1809 1653.7943 1077.465 C 1653.7466 1077.4173 1653.7016 1077.367 1653.6595 1077.3143 L 1642.9621 1063.951 C 1642.3782 1063.2216 1642.4363 1062.1698 1643.097 1061.5092 L 1645.6367 1058.9694 C 1646.2974 1058.3088 1647.3491 1058.2507 1648.0785 1058.8346 L 1661.4419 1069.5319 C 1662.2322 1070.1646 1662.36 1071.3182 1661.7274 1072.1086 C 1661.6852 1072.1612 1661.6402 1072.2115 1661.5925 1072.2592 Z" fill="#f9ba42"/>
            </g>
          </g>
          <g id="Group_143">
            <g id="Graphic_145">
              <path d="M 1671.2781 1069.7594 L 1678.0632 1072.5699 C 1678.9985 1072.9573 1680.0709 1072.5131 1680.4583 1071.5778 C 1680.4851 1071.513 1680.5082 1071.4468 1680.5275 1071.3793 L 1685.0093 1055.6753 C 1685.2648 1054.7798 1684.8084 1053.835 1683.948 1053.4786 L 1680.6165 1052.0986 C 1679.7561 1051.7423 1678.7653 1052.0876 1678.3128 1052.9015 L 1670.3774 1067.1751 C 1669.8855 1068.0599 1670.204 1069.176 1671.0889 1069.668 C 1671.1502 1069.702 1671.2133 1069.7325 1671.2781 1069.7594 Z" fill="#f9ba42"/>
            </g>
            <g id="Graphic_144">
              <path d="M 1660.3148 1096.2172 L 1667.1069 1099.0306 C 1668.0422 1099.418 1668.4864 1100.4903 1668.099 1101.4257 C 1668.0725 1101.4894 1668.0426 1101.5516 1668.0092 1101.612 L 1659.9442 1116.1809 C 1659.4925 1116.9968 1658.5004 1117.3436 1657.6389 1116.9867 L 1654.3128 1115.609 C 1653.4513 1115.2522 1652.995 1114.3054 1653.2525 1113.4092 L 1657.8515 1097.4046 C 1658.1311 1096.4315 1659.1466 1095.8694 1660.1196 1096.149 C 1660.186 1096.168 1660.2511 1096.1908 1660.3148 1096.2172 Z" fill="#f9ba42"/>
            </g>
          </g>
          <g id="Group_140">
            <g id="Graphic_142">
              <path d="M 1680.8574 1075.7073 L 1683.6702 1082.498 C 1684.0576 1083.4334 1685.13 1083.8776 1686.0653 1083.4901 C 1686.1292 1083.4636 1686.1916 1083.4336 1686.2521 1083.4 L 1700.7675 1075.3586 C 1701.583 1074.9068 1701.9295 1073.9149 1701.5727 1073.0536 L 1700.1946 1069.7265 C 1699.8378 1068.8652 1698.8914 1068.4089 1697.9953 1068.666 L 1682.0453 1073.2438 C 1681.0721 1073.523 1680.5097 1074.5383 1680.789 1075.5115 C 1680.808 1075.578 1680.8309 1075.6433 1680.8574 1075.7073 Z" fill="#f9ba42"/>
            </g>
            <g id="Graphic_141">
              <path d="M 1654.5297 1086.6133 L 1657.342 1093.4028 C 1657.7294 1094.3381 1657.2852 1095.4104 1656.35 1095.7978 C 1656.2858 1095.8244 1656.2202 1095.8473 1656.1535 1095.8664 L 1640.2624 1100.4212 C 1639.3664 1100.678 1638.4204 1100.2216 1638.0637 1099.3605 L 1636.6852 1096.0324 C 1636.3285 1095.1713 1636.6747 1094.1796 1637.4898 1093.7277 L 1651.9472 1085.7117 C 1652.8326 1085.2207 1653.9484 1085.5405 1654.4393 1086.4259 C 1654.473 1086.4866 1654.5031 1086.5492 1654.5297 1086.6133 Z" fill="#f9ba42"/>
            </g>
          </g>
          <g id="Group_137">
            <g id="Graphic_139">
              <path d="M 1677.6516 1095.84 L 1670.888 1098.711 C 1669.956 1099.1065 1669.5213 1100.1827 1669.9169 1101.1146 C 1669.944 1101.1786 1669.9749 1101.2411 1670.0092 1101.3016 L 1678.1308 1115.6434 C 1678.59 1116.4543 1679.5844 1116.7916 1680.4422 1116.4275 L 1683.759 1115.0196 C 1684.6167 1114.6555 1685.0649 1113.7059 1684.8006 1112.8123 L 1680.1257 1097.0074 C 1679.8385 1096.0366 1678.8187 1095.4824 1677.848 1095.7695 C 1677.7812 1095.7893 1677.7156 1095.8128 1677.6516 1095.84 Z" fill="#f9ba42"/>
            </g>
            <g id="Graphic_138">
              <path d="M 1666.6122 1069.8211 L 1659.8403 1072.6956 C 1658.9083 1073.0912 1657.8322 1072.6564 1657.4366 1071.7245 C 1657.41 1071.6617 1657.3868 1071.5974 1657.3673 1071.532 L 1652.5454 1055.36 C 1652.2788 1054.4656 1652.7267 1053.5136 1653.5859 1053.1489 L 1656.896 1051.7438 C 1657.7552 1051.3791 1658.7512 1051.7182 1659.2094 1052.5314 L 1667.493 1067.2339 C 1667.99 1068.116 1667.6777 1069.2338 1666.7957 1069.7308 C 1666.7363 1069.7643 1666.675 1069.7945 1666.6122 1069.8211 Z" fill="#f9ba42"/>
            </g>
          </g>
          <g id="Group_134">
            <g id="Graphic_136">
              <path d="M 1683.6985 1086.1422 L 1680.8859 1092.9324 C 1680.4985 1093.8677 1680.9426 1094.94 1681.878 1095.3275 C 1681.942 1095.354 1682.0075 1095.3768 1682.074 1095.396 L 1697.9955 1099.9625 C 1698.8916 1100.2195 1699.8378 1099.7631 1700.1945 1098.9019 L 1701.5728 1095.5744 C 1701.9295 1094.7132 1701.5832 1093.7214 1700.7679 1093.2695 L 1686.2807 1085.2404 C 1685.3952 1084.7496 1684.2795 1085.0696 1683.7887 1085.9551 C 1683.7551 1086.0157 1683.725 1086.0782 1683.6985 1086.1422 Z" fill="#f9ba42"/>
            </g>
            <g id="Graphic_135">
              <path d="M 1657.8451 1075.4272 L 1655.0282 1082.228 C 1654.6408 1083.1633 1653.5684 1083.6075 1652.6331 1083.22 C 1652.5707 1083.1942 1652.5097 1083.1649 1652.4505 1083.1323 L 1637.4965 1074.8986 C 1636.6782 1074.4481 1636.3296 1073.4543 1636.687 1072.5913 L 1638.0618 1069.2722 C 1638.4193 1068.4092 1639.3685 1067.953 1640.2657 1068.213 L 1656.6618 1072.9651 C 1657.6342 1073.2469 1658.194 1074.2636 1657.9122 1075.236 C 1657.8934 1075.301 1657.871 1075.3648 1657.8451 1075.4272 Z" fill="#f9ba42"/>
            </g>
          </g>
          <g id="Graphic_133">
            <circle cx="1669.129" cy="1084.085" r="20.622601046226" stroke="#f9ba42" stroke-linecap="round" stroke-linejoin="round" stroke-width="13.748379"/>
          </g>
        </g>
        <g id="Group_158">
          <g id="Group_181">
            <g id="Graphic_183">
              <path d="M 1608.026 1122.0076 L 1615.3868 1122.0076 C 1616.3992 1122.0076 1617.22 1121.1869 1617.22 1120.1745 C 1617.22 1120.1068 1617.2162 1120.0392 1617.2088 1119.972 L 1615.3247 1103.0157 C 1615.2216 1102.0873 1614.4369 1101.385 1613.5028 1101.385 L 1609.91 1101.385 C 1608.976 1101.385 1608.1913 1102.0873 1608.0882 1103.0157 L 1606.2041 1119.972 C 1606.0923 1120.9782 1606.8174 1121.8846 1607.8236 1121.9964 C 1607.8908 1122.0038 1607.9584 1122.0076 1608.026 1122.0076 Z" fill="#e0151d"/>
            </g>
            <g id="Graphic_182">
              <title>Trapezoid</title>
              <path d="M 1608.0387 1150.5927 L 1615.3742 1150.5927 C 1616.3866 1150.5927 1617.2073 1151.4135 1617.2073 1152.4259 C 1617.2073 1152.4972 1617.2032 1152.5685 1617.1948 1152.6394 L 1615.3335 1168.5073 C 1615.2252 1169.4308 1614.4427 1170.1269 1613.5129 1170.1269 L 1609.9 1170.1269 C 1608.9702 1170.1269 1608.1877 1169.4308 1608.0794 1168.5073 L 1606.218 1152.6394 C 1606.1 1151.6339 1606.8196 1150.7232 1607.825 1150.6052 C 1607.896 1150.5969 1607.9673 1150.5927 1608.0387 1150.5927 Z" fill="#e0151d"/>
            </g>
          </g>
          <g id="Group_178">
            <g id="Graphic_180">
              <path d="M 1626.1422 1132.0833 L 1626.1422 1139.4286 C 1626.1422 1140.441 1626.963 1141.2617 1627.9753 1141.2617 C 1628.0453 1141.2617 1628.1152 1141.2577 1628.1847 1141.2497 L 1644.4536 1139.3797 C 1645.379 1139.2733 1646.0774 1138.49 1646.0774 1137.5586 L 1646.0774 1133.9533 C 1646.0774 1133.0219 1645.379 1132.2386 1644.4536 1132.1322 L 1628.1847 1130.2622 C 1627.1789 1130.1466 1626.2698 1130.8682 1626.1542 1131.874 C 1626.1462 1131.9435 1626.1422 1132.0134 1626.1422 1132.0833 Z" fill="#e0151d"/>
            </g>
            <g id="Graphic_179">
              <path d="M 1597.7747 1132.0776 L 1597.7747 1139.4343 C 1597.7747 1140.4467 1596.954 1141.2675 1595.9416 1141.2675 C 1595.8734 1141.2675 1595.8052 1141.2636 1595.7374 1141.256 L 1578.9644 1139.3757 C 1578.0368 1139.2717 1577.3355 1138.4873 1577.3355 1137.554 L 1577.3355 1133.958 C 1577.3355 1133.0246 1578.0368 1132.2402 1578.9644 1132.1362 L 1595.7374 1130.2559 C 1596.7435 1130.1431 1597.6505 1130.8672 1597.7633 1131.8733 C 1597.771 1131.9411 1597.7747 1132.0093 1597.7747 1132.0776 Z" fill="#e0151d"/>
            </g>
          </g>
          <g id="Group_175">
            <g id="Graphic_177">
              <path d="M 1619.1033 1123.1604 L 1624.302 1128.3591 C 1625.0179 1129.075 1626.1786 1129.075 1626.8944 1128.3591 C 1626.9432 1128.3104 1626.9891 1128.2589 1627.032 1128.205 L 1637.4207 1115.163 C 1638.0017 1114.4336 1637.9425 1113.3841 1637.283 1112.7247 L 1634.7377 1110.1793 C 1634.0782 1109.5199 1633.0288 1109.4607 1632.2993 1110.0417 L 1619.2574 1120.4303 C 1618.4655 1121.0611 1618.3349 1122.2144 1618.9657 1123.0063 C 1619.0086 1123.0602 1619.0545 1123.1116 1619.1033 1123.1604 Z" fill="#e0151d"/>
            </g>
            <g id="Graphic_176">
              <path d="M 1599.2808 1142.979 L 1604.4834 1148.1816 C 1605.1993 1148.8975 1605.1993 1150.0582 1604.4834 1150.774 C 1604.4352 1150.8222 1604.3844 1150.8676 1604.3312 1150.9101 L 1591.1139 1161.4671 C 1590.3845 1162.0497 1589.3337 1161.9911 1588.6736 1161.331 L 1586.1314 1158.7887 C 1585.4713 1158.1286 1585.4127 1157.0779 1585.9953 1156.3485 L 1596.5522 1143.1312 C 1597.184 1142.3401 1598.3375 1142.2111 1599.1286 1142.8429 C 1599.1818 1142.8854 1599.2326 1142.9308 1599.2808 1142.979 Z" fill="#e0151d"/>
            </g>
          </g>
          <g id="Group_172">
            <g id="Graphic_174">
              <path d="M 1624.4098 1144.1907 L 1619.2247 1149.3758 C 1618.5088 1150.0917 1618.5088 1151.2524 1619.2247 1151.9683 C 1619.2754 1152.019 1619.3291 1152.0667 1619.3855 1152.1112 L 1631.8423 1161.9392 C 1632.572 1162.5148 1633.6168 1162.4534 1634.274 1161.7963 L 1636.8302 1159.24 C 1637.4873 1158.5829 1637.5487 1157.538 1636.9731 1156.8084 L 1627.1451 1144.3515 C 1626.518 1143.5567 1625.3654 1143.4207 1624.5705 1144.0478 C 1624.5142 1144.0923 1624.4605 1144.14 1624.4098 1144.1907 Z" fill="#e0151d"/>
            </g>
            <g id="Graphic_173">
              <path d="M 1604.1699 1123.9302 L 1598.9641 1129.136 C 1598.2482 1129.8518 1597.0876 1129.8518 1596.3717 1129.136 C 1596.324 1129.0883 1596.279 1129.038 1596.2368 1128.9853 L 1585.5395 1115.622 C 1584.9556 1114.8926 1585.0137 1113.8408 1585.6743 1113.1802 L 1588.2141 1110.6404 C 1588.8747 1109.9798 1589.9265 1109.9217 1590.6559 1110.5056 L 1604.0193 1121.2029 C 1604.8096 1121.8356 1604.9374 1122.9892 1604.3048 1123.7796 C 1604.2626 1123.8322 1604.2176 1123.8825 1604.1699 1123.9302 Z" fill="#e0151d"/>
            </g>
          </g>
          <g id="Group_169">
            <g id="Graphic_171">
              <path d="M 1613.8555 1121.4304 L 1620.6406 1124.2408 C 1621.576 1124.6283 1622.6482 1124.1841 1623.0357 1123.2488 C 1623.0625 1123.184 1623.0856 1123.1177 1623.1048 1123.0503 L 1627.5866 1107.3463 C 1627.8422 1106.4508 1627.3858 1105.506 1626.5254 1105.1496 L 1623.1938 1103.7696 C 1622.3335 1103.4133 1621.3427 1103.7586 1620.8902 1104.5725 L 1612.9548 1118.846 C 1612.4629 1119.7309 1612.7814 1120.847 1613.6663 1121.339 C 1613.7275 1121.373 1613.7907 1121.4035 1613.8555 1121.4304 Z" fill="#e0151d"/>
            </g>
            <g id="Graphic_170">
              <path d="M 1602.8922 1147.8882 L 1609.6843 1150.7016 C 1610.6196 1151.089 1611.0638 1152.1613 1610.6763 1153.0967 C 1610.65 1153.1604 1610.62 1153.2226 1610.5865 1153.283 L 1602.5216 1167.8519 C 1602.07 1168.6678 1601.0778 1169.0145 1600.2163 1168.6577 L 1596.8902 1167.28 C 1596.0287 1166.9231 1595.5724 1165.9764 1595.8299 1165.0801 L 1600.4289 1149.0755 C 1600.7085 1148.1025 1601.724 1147.5404 1602.697 1147.82 C 1602.7633 1147.839 1602.8285 1147.8618 1602.8922 1147.8882 Z" fill="#e0151d"/>
            </g>
          </g>
          <g id="Group_166">
            <g id="Graphic_168">
              <path d="M 1623.4347 1127.3782 L 1626.2476 1134.169 C 1626.635 1135.1044 1627.7073 1135.5485 1628.6427 1135.1611 C 1628.7066 1135.1346 1628.769 1135.1046 1628.8295 1135.071 L 1643.3449 1127.0296 C 1644.1603 1126.5778 1644.5069 1125.5859 1644.1501 1124.7246 L 1642.772 1121.3975 C 1642.4152 1120.5362 1641.4688 1120.0798 1640.5727 1120.337 L 1624.6226 1124.9148 C 1623.6495 1125.194 1623.087 1126.2093 1623.3663 1127.1824 C 1623.3854 1127.249 1623.4083 1127.3143 1623.4347 1127.3782 Z" fill="#e0151d"/>
            </g>
            <g id="Graphic_167">
              <path d="M 1597.107 1138.2843 L 1599.9194 1145.0738 C 1600.3068 1146.0091 1599.8626 1147.0814 1598.9273 1147.4688 C 1598.8632 1147.4954 1598.7976 1147.5183 1598.7309 1147.5374 L 1582.8397 1152.0921 C 1581.9438 1152.349 1580.9978 1151.8926 1580.6411 1151.0315 L 1579.2625 1147.7034 C 1578.9059 1146.8423 1579.2521 1145.8506 1580.0672 1145.3987 L 1594.5246 1137.3826 C 1595.41 1136.8917 1596.5258 1137.2115 1597.0167 1138.0969 C 1597.0503 1138.1576 1597.0805 1138.2202 1597.107 1138.2843 Z" fill="#e0151d"/>
            </g>
          </g>
          <g id="Group_163">
            <g id="Graphic_165">
              <path d="M 1620.229 1147.511 L 1613.4654 1150.382 C 1612.5335 1150.7775 1612.0987 1151.8537 1612.4943 1152.7856 C 1612.5214 1152.8496 1612.5523 1152.9121 1612.5865 1152.9726 L 1620.7082 1167.3144 C 1621.1674 1168.1253 1622.1618 1168.4626 1623.0196 1168.0985 L 1626.3364 1166.6906 C 1627.1941 1166.3265 1627.6422 1165.3769 1627.378 1164.4833 L 1622.703 1148.6784 C 1622.416 1147.7076 1621.3961 1147.1534 1620.4253 1147.4405 C 1620.3586 1147.4603 1620.293 1147.4838 1620.229 1147.511 Z" fill="#e0151d"/>
            </g>
            <g id="Graphic_164">
              <path d="M 1609.1895 1121.4921 L 1602.4176 1124.3666 C 1601.4857 1124.7622 1600.4096 1124.3274 1600.014 1123.3955 C 1599.9873 1123.3326 1599.9642 1123.2684 1599.9447 1123.203 L 1595.1228 1107.031 C 1594.8561 1106.1366 1595.3041 1105.1846 1596.1633 1104.8199 L 1599.4734 1103.4148 C 1600.3326 1103.0501 1601.3286 1103.3892 1601.7868 1104.2024 L 1610.0704 1118.9049 C 1610.5673 1119.787 1610.2551 1120.9048 1609.373 1121.4018 C 1609.3136 1121.4353 1609.2523 1121.4654 1609.1895 1121.4921 Z" fill="#e0151d"/>
            </g>
          </g>
          <g id="Group_160">
            <g id="Graphic_162">
              <path d="M 1626.2758 1137.8132 L 1623.4633 1144.6034 C 1623.0758 1145.5387 1623.52 1146.611 1624.4554 1146.9984 C 1624.5194 1147.025 1624.5849 1147.0478 1624.6515 1147.067 L 1640.573 1151.6335 C 1641.469 1151.8905 1642.4152 1151.4341 1642.7719 1150.5729 L 1644.1502 1147.2454 C 1644.507 1146.3842 1644.1605 1145.3924 1643.3452 1144.9405 L 1628.858 1136.9114 C 1627.9725 1136.4206 1626.8568 1136.7406 1626.366 1137.6261 C 1626.3325 1137.6867 1626.3024 1137.7492 1626.2758 1137.8132 Z" fill="#e0151d"/>
            </g>
            <g id="Graphic_161">
              <path d="M 1600.4225 1127.0982 L 1597.6056 1133.899 C 1597.2181 1134.8343 1596.1458 1135.2785 1595.2105 1134.891 C 1595.148 1134.8652 1595.087 1134.8359 1595.0278 1134.8032 L 1580.0738 1126.5696 C 1579.2556 1126.1191 1578.907 1125.1253 1579.2644 1124.2623 L 1580.6392 1120.9432 C 1580.9967 1120.0802 1581.946 1119.624 1582.843 1119.884 L 1599.2392 1124.636 C 1600.2116 1124.9179 1600.7714 1125.9346 1600.4896 1126.907 C 1600.4708 1126.972 1600.4484 1127.0358 1600.4225 1127.0982 Z" fill="#e0151d"/>
            </g>
          </g>
          <g id="Graphic_159">
            <circle cx="1611.7064" cy="1135.756" r="20.6226010462261" stroke="#e0151d" stroke-linecap="round" stroke-linejoin="round" stroke-width="13.748379"/>
          </g>
        </g>
        <g id="Group_184">
          <g id="Group_207">
            <g id="Graphic_209">
              <path d="M 1526.3377 1122.0076 L 1533.6986 1122.0076 C 1534.711 1122.0076 1535.5317 1121.1869 1535.5317 1120.1745 C 1535.5317 1120.1068 1535.528 1120.0392 1535.5205 1119.972 L 1533.6364 1103.0157 C 1533.5333 1102.0873 1532.7486 1101.385 1531.8145 1101.385 L 1528.2218 1101.385 C 1527.2877 1101.385 1526.503 1102.0873 1526.3999 1103.0157 L 1524.5158 1119.972 C 1524.404 1120.9782 1525.1291 1121.8846 1526.1353 1121.9964 C 1526.2025 1122.0038 1526.2701 1122.0076 1526.3377 1122.0076 Z" fill="#d2d4d9"/>
            </g>
            <g id="Graphic_208">
              <title>Trapezoid</title>
              <path d="M 1526.3504 1150.5927 L 1533.686 1150.5927 C 1534.6983 1150.5927 1535.519 1151.4135 1535.519 1152.4259 C 1535.519 1152.4972 1535.5149 1152.5685 1535.5066 1152.6394 L 1533.6452 1168.5073 C 1533.5369 1169.4308 1532.7544 1170.1269 1531.8246 1170.1269 L 1528.2117 1170.1269 C 1527.282 1170.1269 1526.4994 1169.4308 1526.391 1168.5073 L 1524.5297 1152.6394 C 1524.4118 1151.6339 1525.1313 1150.7232 1526.1368 1150.6052 C 1526.2077 1150.5969 1526.279 1150.5927 1526.3504 1150.5927 Z" fill="#d2d4d9"/>
            </g>
          </g>
          <g id="Group_204">
            <g id="Graphic_206">
              <path d="M 1544.454 1132.0833 L 1544.454 1139.4286 C 1544.454 1140.441 1545.2747 1141.2617 1546.287 1141.2617 C 1546.357 1141.2617 1546.4269 1141.2577 1546.4964 1141.2497 L 1562.7653 1139.3797 C 1563.6906 1139.2733 1564.3891 1138.49 1564.3891 1137.5586 L 1564.3891 1133.9533 C 1564.3891 1133.0219 1563.6906 1132.2386 1562.7653 1132.1322 L 1546.4964 1130.2622 C 1545.4906 1130.1466 1544.5815 1130.8682 1544.466 1131.874 C 1544.458 1131.9435 1544.454 1132.0134 1544.454 1132.0833 Z" fill="#d2d4d9"/>
            </g>
            <g id="Graphic_205">
              <path d="M 1516.0865 1132.0776 L 1516.0865 1139.4343 C 1516.0865 1140.4467 1515.2657 1141.2675 1514.2533 1141.2675 C 1514.1851 1141.2675 1514.117 1141.2636 1514.0491 1141.256 L 1497.2761 1139.3757 C 1496.3485 1139.2717 1495.6472 1138.4873 1495.6472 1137.554 L 1495.6472 1133.958 C 1495.6472 1133.0246 1496.3485 1132.2402 1497.2761 1132.1362 L 1514.0491 1130.2559 C 1515.0552 1130.1431 1515.9623 1130.8672 1516.075 1131.8733 C 1516.0826 1131.9411 1516.0865 1132.0093 1516.0865 1132.0776 Z" fill="#d2d4d9"/>
            </g>
          </g>
          <g id="Group_201">
            <g id="Graphic_203">
              <path d="M 1537.415 1123.1604 L 1542.6137 1128.3591 C 1543.3296 1129.075 1544.4903 1129.075 1545.2062 1128.3591 C 1545.2549 1128.3104 1545.3008 1128.2589 1545.3438 1128.205 L 1555.7324 1115.163 C 1556.3134 1114.4336 1556.2542 1113.3841 1555.5948 1112.7247 L 1553.0494 1110.1793 C 1552.39 1109.5199 1551.3405 1109.4607 1550.611 1110.0417 L 1537.569 1120.4303 C 1536.7772 1121.0611 1536.6466 1122.2144 1537.2774 1123.0063 C 1537.3203 1123.0602 1537.3663 1123.1116 1537.415 1123.1604 Z" fill="#d2d4d9"/>
            </g>
            <g id="Graphic_202">
              <path d="M 1517.5925 1142.979 L 1522.7951 1148.1816 C 1523.511 1148.8975 1523.511 1150.0582 1522.7951 1150.774 C 1522.747 1150.8222 1522.6961 1150.8676 1522.643 1150.9101 L 1509.4256 1161.4671 C 1508.6962 1162.0497 1507.6455 1161.9911 1506.9854 1161.331 L 1504.443 1158.7887 C 1503.783 1158.1286 1503.7244 1157.0779 1504.307 1156.3485 L 1514.864 1143.1312 C 1515.4958 1142.3401 1516.6492 1142.2111 1517.4403 1142.8429 C 1517.4935 1142.8854 1517.5443 1142.9308 1517.5925 1142.979 Z" fill="#d2d4d9"/>
            </g>
          </g>
          <g id="Group_198">
            <g id="Graphic_200">
              <path d="M 1542.7215 1144.1907 L 1537.5364 1149.3758 C 1536.8205 1150.0917 1536.8205 1151.2524 1537.5364 1151.9683 C 1537.5871 1152.019 1537.6408 1152.0667 1537.6972 1152.1112 L 1550.154 1161.9392 C 1550.8837 1162.5148 1551.9286 1162.4534 1552.5857 1161.7963 L 1555.1419 1159.24 C 1555.799 1158.5829 1555.8605 1157.538 1555.2848 1156.8084 L 1545.4568 1144.3515 C 1544.8298 1143.5567 1543.677 1143.4207 1542.8823 1144.0478 C 1542.826 1144.0923 1542.7722 1144.14 1542.7215 1144.1907 Z" fill="#d2d4d9"/>
            </g>
            <g id="Graphic_199">
              <path d="M 1522.4816 1123.9302 L 1517.2758 1129.136 C 1516.56 1129.8518 1515.3993 1129.8518 1514.6834 1129.136 C 1514.6357 1129.0883 1514.5907 1129.038 1514.5485 1128.9853 L 1503.8512 1115.622 C 1503.2673 1114.8926 1503.3254 1113.8408 1503.986 1113.1802 L 1506.5258 1110.6404 C 1507.1864 1109.9798 1508.2382 1109.9217 1508.9676 1110.5056 L 1522.331 1121.2029 C 1523.1213 1121.8356 1523.2492 1122.9892 1522.6165 1123.7796 C 1522.5743 1123.8322 1522.5293 1123.8825 1522.4816 1123.9302 Z" fill="#d2d4d9"/>
            </g>
          </g>
          <g id="Group_195">
            <g id="Graphic_197">
              <path d="M 1532.1672 1121.4304 L 1538.9523 1124.2408 C 1539.8876 1124.6283 1540.96 1124.1841 1541.3474 1123.2488 C 1541.3742 1123.184 1541.3973 1123.1177 1541.4165 1123.0503 L 1545.8984 1107.3463 C 1546.154 1106.4508 1545.6975 1105.506 1544.8371 1105.1496 L 1541.5056 1103.7696 C 1540.6452 1103.4133 1539.6544 1103.7586 1539.2019 1104.5725 L 1531.2665 1118.846 C 1530.7746 1119.7309 1531.0931 1120.847 1531.978 1121.339 C 1532.0393 1121.373 1532.1024 1121.4035 1532.1672 1121.4304 Z" fill="#d2d4d9"/>
            </g>
            <g id="Graphic_196">
              <path d="M 1521.204 1147.8882 L 1527.996 1150.7016 C 1528.9313 1151.089 1529.3755 1152.1613 1528.988 1153.0967 C 1528.9616 1153.1604 1528.9317 1153.2226 1528.8982 1153.283 L 1520.8333 1167.8519 C 1520.3816 1168.6678 1519.3895 1169.0145 1518.528 1168.6577 L 1515.202 1167.28 C 1514.3404 1166.9231 1513.884 1165.9764 1514.1416 1165.0801 L 1518.7406 1149.0755 C 1519.0202 1148.1025 1520.0357 1147.5404 1521.0087 1147.82 C 1521.075 1147.839 1521.1402 1147.8618 1521.204 1147.8882 Z" fill="#d2d4d9"/>
            </g>
          </g>
          <g id="Group_192">
            <g id="Graphic_194">
              <path d="M 1541.7465 1127.3782 L 1544.5593 1134.169 C 1544.9467 1135.1044 1546.019 1135.5485 1546.9544 1135.1611 C 1547.0183 1135.1346 1547.0807 1135.1046 1547.1412 1135.071 L 1561.6566 1127.0296 C 1562.472 1126.5778 1562.8186 1125.5859 1562.4618 1124.7246 L 1561.0837 1121.3975 C 1560.727 1120.5362 1559.7805 1120.0798 1558.8844 1120.337 L 1542.9343 1124.9148 C 1541.9612 1125.194 1541.3988 1126.2093 1541.678 1127.1824 C 1541.6971 1127.249 1541.72 1127.3143 1541.7465 1127.3782 Z" fill="#d2d4d9"/>
            </g>
            <g id="Graphic_193">
              <path d="M 1515.4188 1138.2843 L 1518.231 1145.0738 C 1518.6185 1146.0091 1518.1743 1147.0814 1517.239 1147.4688 C 1517.1749 1147.4954 1517.1093 1147.5183 1517.0426 1147.5374 L 1501.1515 1152.0921 C 1500.2555 1152.349 1499.3095 1151.8926 1498.9528 1151.0315 L 1497.5743 1147.7034 C 1497.2176 1146.8423 1497.5638 1145.8506 1498.379 1145.3987 L 1512.8363 1137.3826 C 1513.7217 1136.8917 1514.8375 1137.2115 1515.3284 1138.0969 C 1515.362 1138.1576 1515.3922 1138.2202 1515.4188 1138.2843 Z" fill="#d2d4d9"/>
            </g>
          </g>
          <g id="Group_189">
            <g id="Graphic_191">
              <path d="M 1538.5407 1147.511 L 1531.7771 1150.382 C 1530.8452 1150.7775 1530.4104 1151.8537 1530.806 1152.7856 C 1530.8332 1152.8496 1530.864 1152.9121 1530.8983 1152.9726 L 1539.0199 1167.3144 C 1539.479 1168.1253 1540.4735 1168.4626 1541.3313 1168.0985 L 1544.648 1166.6906 C 1545.5058 1166.3265 1545.954 1165.3769 1545.6896 1164.4833 L 1541.0148 1148.6784 C 1540.7276 1147.7076 1539.7078 1147.1534 1538.737 1147.4405 C 1538.6703 1147.4603 1538.6047 1147.4838 1538.5407 1147.511 Z" fill="#d2d4d9"/>
            </g>
            <g id="Graphic_190">
              <path d="M 1527.5012 1121.4921 L 1520.7294 1124.3666 C 1519.7974 1124.7622 1518.7213 1124.3274 1518.3257 1123.3955 C 1518.299 1123.3326 1518.2759 1123.2684 1518.2564 1123.203 L 1513.4345 1107.031 C 1513.1679 1106.1366 1513.6158 1105.1846 1514.475 1104.8199 L 1517.7852 1103.4148 C 1518.6443 1103.0501 1519.6403 1103.3892 1520.0985 1104.2024 L 1528.382 1118.9049 C 1528.879 1119.787 1528.5668 1120.9048 1527.6848 1121.4018 C 1527.6253 1121.4353 1527.564 1121.4654 1527.5012 1121.4921 Z" fill="#d2d4d9"/>
            </g>
          </g>
          <g id="Group_186">
            <g id="Graphic_188">
              <path d="M 1544.5876 1137.8132 L 1541.775 1144.6034 C 1541.3876 1145.5387 1541.8317 1146.611 1542.767 1146.9984 C 1542.8311 1147.025 1542.8966 1147.0478 1542.9632 1147.067 L 1558.8846 1151.6335 C 1559.7807 1151.8905 1560.7269 1151.4341 1561.0836 1150.5729 L 1562.462 1147.2454 C 1562.8186 1146.3842 1562.4723 1145.3924 1561.657 1144.9405 L 1547.1697 1136.9114 C 1546.2842 1136.4206 1545.1686 1136.7406 1544.6778 1137.6261 C 1544.6442 1137.6867 1544.614 1137.7492 1544.5876 1137.8132 Z" fill="#d2d4d9"/>
            </g>
            <g id="Graphic_187">
              <path d="M 1518.7342 1127.0982 L 1515.9173 1133.899 C 1515.5299 1134.8343 1514.4575 1135.2785 1513.5222 1134.891 C 1513.4597 1134.8652 1513.3988 1134.8359 1513.3396 1134.8032 L 1498.3856 1126.5696 C 1497.5673 1126.1191 1497.2187 1125.1253 1497.5761 1124.2623 L 1498.951 1120.9432 C 1499.3084 1120.0802 1500.2576 1119.624 1501.1548 1119.884 L 1517.551 1124.636 C 1518.5233 1124.9179 1519.0831 1125.9346 1518.8013 1126.907 C 1518.7825 1126.972 1518.7601 1127.0358 1518.7342 1127.0982 Z" fill="#d2d4d9"/>
            </g>
          </g>
          <g id="Graphic_185">
            <circle cx="1530.0181" cy="1135.756" r="20.622601046226" stroke="#d2d4d9" stroke-linecap="round" stroke-linejoin="round" stroke-width="13.748379"/>
          </g>
        </g>
      </g>
    </g>
  </g>
</svg>
